<svg xmlns="http://www.w3.org/2000/svg" fill="#FFF">
    <path d="M 0 0 h 24 v 24 H 0 V 0 z" fill="none" />
    <path
        d="M 10.8 4.9 c 0 -0.7 0.5 -1.2 1.2 -1.2 s 1.2 0.5 1.2 1.2 l 0 3.9 L 15 10.6 V 5 c 0 -1.7 -1.3 -3 -3 -3 c -1.5 0 -2.8 1.2 -3 2.6 l 1.8 1.8 V 4.9 z M 19 11 h -1.7 c 0 0.6 -0.1 1.1 -0.3 1.6 l 1.3 1.3 c 0.4 -0.9 0.7 -1.9 0.7 -2.9 z M 4.4 2.9 L 3 4.3 l 6 6 V 11 c 0 1.7 1.3 3 3 3 c 0.2 0 0.4 0 0.7 -0.1 l 1.7 1.7 c -0.7 0.3 -1.5 0.5 -2.3 0.5 c -2.8 0 -5.3 -2.1 -5.3 -5.1 H 5 c 0 3.4 2.7 6.2 6 6.7 V 21 h 2 v -3.3 a 7.1 7.1 0 0 0 2.5 -0.9 l 4.2 4.2 l 1.4 -1.4 L 4.4 2.9 z" />
</svg>